<?xml version="1.0" encoding="UTF-8" standalone="no"?><!-- Generator: Gravit.io --><svg xmlns="http://www.w3.org/2000/svg" xmlns:xlink="http://www.w3.org/1999/xlink" style="isolation:isolate" viewBox="0 0 1024 1024" width="1024pt" height="1024pt"><defs><clipPath id="_clipPath_nnvAkuVTA3CSPzNyXmlAzopjTHDx39kL"><rect width="1024" height="1024"/></clipPath></defs><g clip-path="url(#_clipPath_nnvAkuVTA3CSPzNyXmlAzopjTHDx39kL)"><defs><linearGradient id="_lgradient_7" x1="0.9277343750000004" y1="0.06640624999999967" x2="0.0666828728540777" y2="0.9415403701716736"><stop offset="0%" style="stop-color:#3A65D9"/><stop offset="97.08333333333333%" style="stop-color:#9900FF"/></linearGradient></defs><path d="M 209.92 0 L 814.08 0 C 929.938 0 1024 94.062 1024 209.92 L 1024 814.08 C 1024 929.938 929.938 1024 814.08 1024 L 209.92 1024 C 94.062 1024 0 929.938 0 814.08 L 0 209.92 C 0 94.062 94.062 0 209.92 0 Z" style="stroke:none;fill:url(#_lgradient_7);stroke-miterlimit:10;"/><defs><filter id="kGV09SmvM5995A5AdwZ7vFMDP03rESJT" x="-200%" y="-200%" width="400%" height="400%" filterUnits="objectBoundingBox" color-interpolation-filters="sRGB"><feGaussianBlur xmlns="http://www.w3.org/2000/svg" in="SourceGraphic" stdDeviation="14.168909907368793"/><feOffset xmlns="http://www.w3.org/2000/svg" dx="-20" dy="32" result="pf_100_offsetBlur"/><feFlood xmlns="http://www.w3.org/2000/svg" flood-color="#000000" flood-opacity="1"/><feComposite xmlns="http://www.w3.org/2000/svg" in2="pf_100_offsetBlur" operator="in" result="pf_100_dropShadow"/><feBlend xmlns="http://www.w3.org/2000/svg" in="SourceGraphic" in2="pf_100_dropShadow" mode="normal"/></filter></defs><g filter="url(#kGV09SmvM5995A5AdwZ7vFMDP03rESJT)"><path d=" M 200.694 465.467 C 200.694 312.98 325.031 189.18 478.18 189.18 C 631.328 189.18 755.665 312.98 755.665 465.467 C 755.665 617.954 631.328 741.754 478.18 741.754 C 325.031 741.754 200.694 617.954 200.694 465.467 L 200.694 465.467 L 200.694 465.467 Z  M 758.504 681.748 C 805.809 621.699 834.016 546.058 834.016 463.913 C 834.016 268.744 674.789 110.291 478.665 110.291 C 282.542 110.291 123.315 268.744 123.315 463.913 L 123.315 463.913 C 123.315 659.083 282.542 817.535 478.665 817.535 C 547.023 817.535 610.898 798.286 665.107 764.936 C 665.646 765.437 697.059 796.554 735.04 834.202 C 803.233 901.781 809.39 906.989 827.043 911.64 C 865.882 921.889 900.685 892.908 900.685 850.311 C 900.685 824.511 898.528 821.572 824.476 746.888 C 789.17 711.303 760.301 681.355 760.301 680.369 C 760.301 680.29 759.702 680.749 758.504 681.748 L 758.504 681.748 Z  M 648.619 339.295 C 656.524 347.182 655.836 340.113 655.576 410.836 C 655.427 457.451 654.701 460.687 643.429 465.338 C 635.505 468.611 626.39 464.519 614.597 452.335 C 602.227 439.556 600.943 439.965 581.431 462.864 C 572.074 473.838 511.21 542.291 502.133 552.429 C 462.475 596.719 460.336 596.551 411.396 545.249 C 370.119 501.945 378.601 502.763 341.51 538.571 C 301.164 577.541 292.924 581.596 280.74 568.519 C 266.38 553.08 272.276 542.887 326.313 489.65 C 380.145 436.636 376.927 436.822 422.984 483.92 C 440.563 501.889 456.095 516.603 457.49 516.603 C 460.652 516.603 501.203 472.276 533.365 433.659 Q 538.982 426.926 557.137 405.59 L 542.703 390.449 C 521.237 367.941 524.12 353.45 551.036 348.67 C 557.156 347.591 575.999 343.555 592.963 339.704 C 633.961 330.385 639.634 330.348 648.619 339.295 Z " fill-rule="evenodd" fill="rgb(255,255,255)"/></g></g></svg>