<?xml version="1.0" encoding="UTF-8" standalone="no"?><!-- Generator: Gravit.io --><svg xmlns="http://www.w3.org/2000/svg" xmlns:xlink="http://www.w3.org/1999/xlink" style="isolation:isolate" viewBox="0 0 1024 1024" width="1024pt" height="1024pt"><defs><clipPath id="_clipPath_BAKEVUa4Xd9nOSEAFfl1dgL0KsT28WUc"><rect width="1024" height="1024"/></clipPath></defs><g clip-path="url(#_clipPath_BAKEVUa4Xd9nOSEAFfl1dgL0KsT28WUc)"><g filter="url(#aAApyPFufu5wTBiJTiPsXvcP4M2lI55b)"><linearGradient id="_lgradient_0" x1="0.9658180870531814" y1="0.04509632299912013" x2="0.05031129224733866" y2="0.9015168344144057" gradientTransform="matrix(958.387,0,0,990.5,32.806,16.75)" gradientUnits="userSpaceOnUse"><stop offset="0%" stop-opacity="1" style="stop-color:rgb(58,101,217)"/><stop offset="97.08333333333333%" stop-opacity="1" style="stop-color:rgb(153,0,255)"/></linearGradient><path d=" M 815.904 721.275 C 874.225 647.243 909 553.989 909 452.716 C 909 212.1 712.695 16.75 470.903 16.75 C 229.111 16.75 32.806 212.1 32.806 452.716 L 32.806 452.716 C 32.806 693.332 229.111 888.682 470.903 888.682 C 555.178 888.682 633.927 864.95 700.759 823.834 C 701.424 824.452 740.151 862.814 786.977 909.229 C 871.049 992.544 878.64 998.965 900.403 1004.699 C 948.286 1017.335 991.194 981.605 991.194 929.089 C 991.194 897.281 988.534 893.658 897.238 801.583 C 853.712 757.712 818.12 720.791 818.12 719.575 C 818.12 719.477 817.381 720.043 815.904 721.275 Z  M 128.204 454.631 C 128.204 266.637 281.494 114.009 470.304 114.009 C 659.115 114.009 812.405 266.637 812.405 454.631 C 812.405 642.626 659.115 795.253 470.304 795.253 C 281.494 795.253 128.204 642.626 128.204 454.631 L 128.204 454.631 Z " fill-rule="evenodd" fill="url(#_lgradient_0)"/><linearGradient id="_lgradient_1" x1="0.9658180870531814" y1="0.04509632299912013" x2="0.05031129224733866" y2="0.9015168344144057" gradientTransform="matrix(470.555,0,0,310.792,218.624,290.885)" gradientUnits="userSpaceOnUse"><stop offset="0%" stop-opacity="1" style="stop-color:rgb(58,101,217)"/><stop offset="97.08333333333333%" stop-opacity="1" style="stop-color:rgb(153,0,255)"/></linearGradient><path d=" M 680.431 299.079 C 690.178 308.803 689.329 300.088 689.008 387.279 C 688.825 444.748 687.93 448.739 674.033 454.472 C 664.264 458.508 653.027 453.463 638.487 438.442 C 623.237 422.687 621.654 423.192 597.598 451.422 C 586.063 464.952 511.027 549.345 499.835 561.843 C 450.943 616.446 448.305 616.24 387.969 552.991 C 337.081 499.604 347.539 500.613 301.811 544.758 C 252.069 592.803 241.91 597.802 226.889 581.68 C 209.185 562.646 216.455 550.079 283.074 484.445 C 349.442 419.087 345.475 419.316 402.256 477.382 C 423.928 499.535 443.077 517.675 444.797 517.675 C 448.695 517.675 498.689 463.026 538.34 415.417 Q 545.265 407.116 567.648 380.812 L 549.852 362.144 C 523.387 334.396 526.942 316.531 560.126 310.637 C 567.671 309.307 590.902 304.331 611.816 299.584 C 662.36 288.094 669.355 288.049 680.431 299.079 Z " fill-rule="evenodd" fill="url(#_lgradient_1)"/></g><defs><filter id="aAApyPFufu5wTBiJTiPsXvcP4M2lI55b" x="-200%" y="-200%" width="400%" height="400%" filterUnits="objectBoundingBox" color-interpolation-filters="sRGB"><feOffset xmlns="http://www.w3.org/2000/svg" in="SourceGraphic" dx="-15" dy="20"/><feGaussianBlur xmlns="http://www.w3.org/2000/svg" stdDeviation="5.152330875406834" result="pf_100_offsetBlur"/><feComposite xmlns="http://www.w3.org/2000/svg" in="SourceGraphic" in2="pf_100_offsetBlur" result="pf_100_inverse" operator="out"/><feFlood xmlns="http://www.w3.org/2000/svg" flood-color="#000000" flood-opacity="0.5" result="pf_100_color"/><feComposite xmlns="http://www.w3.org/2000/svg" in="pf_100_color" in2="pf_100_inverse" operator="in" result="pf_100_shadow"/><feComposite xmlns="http://www.w3.org/2000/svg" in="pf_100_shadow" in2="SourceGraphic" operator="over"/></filter></defs></g></svg>