<?xml version="1.0" encoding="UTF-8" standalone="no"?>
<!-- Generator: Gravit.io --><svg xmlns="http://www.w3.org/2000/svg" xmlns:xlink="http://www.w3.org/1999/xlink"
    style="isolation:isolate" viewBox="0 0 54.8 54.8" width="54.8pt" height="54.8pt">
    <defs>
        <clipPath id="_clipPath_vDb9DqJifyGiwvqFOVEExygAvrZ9s1oS">
            <rect width="54.8" height="54.8" />
        </clipPath>
    </defs>
    <g clip-path="url(#_clipPath_vDb9DqJifyGiwvqFOVEExygAvrZ9s1oS)">
        <linearGradient id="_lgradient_0" x1="0.6381533591183975" y1="0.3322681412963209" x2="0.1494246968448925"
            y2="0.8791514946721942" gradientTransform="matrix(54.8,0,0,54.8,0,0)" gradientUnits="userSpaceOnUse">
            <stop offset="0%" stop-opacity="1" style="stop-color:rgb(58,101,217)" />
            <stop offset="97.91666666666666%" stop-opacity="1" style="stop-color:rgb(153,0,255)" />
        </linearGradient>
        <path
            d=" M 11.223 0.105 C 5.771 0.804 1.512 5.081 0.217 11.158 C -0.071 12.51 -0.073 42.949 0.214 44.236 C 1.346 49.3 4.668 53.036 9.169 54.309 C 10.874 54.79 11.347 54.803 27.291 54.8 C 42.892 54.796 42.921 54.796 44.958 54.38 C 49.102 53.534 53.206 49.324 54.311 44.786 C 54.761 42.939 54.738 43.716 54.784 28.66 C 54.837 11.31 54.817 10.888 53.823 8.461 C 51.738 3.367 47.969 0.506 42.801 0.096 C 41.117 -0.038 12.274 -0.029 11.223 0.105 L 11.223 0.105 L 11.223 0.105 Z "
            fill-rule="evenodd" fill="url(#_lgradient_0)" />
        <defs>
            <filter id="EwUIDRFSfbMTVp7tYcm2Yk2GRW9RNH0G" x="-200%" y="-200%" width="400%" height="400%"
                filterUnits="objectBoundingBox" color-interpolation-filters="sRGB">
                <feGaussianBlur xmlns="http://www.w3.org/2000/svg" in="SourceGraphic"
                    stdDeviation="2.146804531419514" />
                <feOffset xmlns="http://www.w3.org/2000/svg" dx="-1" dy="2" result="pf_100_offsetBlur" />
                <feFlood xmlns="http://www.w3.org/2000/svg" flood-color="#000000" flood-opacity="0.65" />
                <feComposite xmlns="http://www.w3.org/2000/svg" in2="pf_100_offsetBlur" operator="in"
                    result="pf_100_dropShadow" />
                <feBlend xmlns="http://www.w3.org/2000/svg" in="SourceGraphic" in2="pf_100_dropShadow" mode="normal" />
            </filter>
        </defs>
        <g filter="url(#EwUIDRFSfbMTVp7tYcm2Yk2GRW9RNH0G)">
            <path
                d=" M 23.856 10.562 C 23.734 10.614 23.489 10.66 23.312 10.664 C 23.133 10.669 22.836 10.72 22.649 10.778 C 22.463 10.836 21.888 11.013 21.372 11.172 C 11.075 14.346 7.822 27.935 15.496 35.713 C 16.701 36.934 19.241 38.741 19.752 38.741 C 19.829 38.741 19.94 38.784 19.997 38.837 C 20.644 39.424 24.099 40.169 26.174 40.168 C 32.32 40.167 37.515 36.669 40.06 30.816 C 40.858 28.98 41.305 25.608 41.013 23.636 C 39.824 15.622 33.875 10.437 25.897 10.462 C 24.896 10.465 23.977 10.51 23.856 10.562 L 23.856 10.562 L 23.856 10.562 Z  M 28.989 6.393 C 36.408 7.8 42.009 12.564 44.327 19.44 C 45.461 22.804 45.509 27.343 44.446 30.735 C 43.878 32.547 42.914 34.518 41.833 36.077 C 41.569 36.459 41.352 36.814 41.352 36.868 C 41.352 36.921 42.904 38.531 44.802 40.444 C 48.783 44.459 48.899 44.617 48.899 46.004 C 48.899 48.294 47.028 49.852 44.94 49.301 C 43.991 49.051 43.66 48.771 39.994 45.138 C 37.941 43.103 36.245 41.423 36.225 41.405 C 36.206 41.387 35.823 41.585 35.377 41.846 C 33.216 43.107 31.245 43.785 28.424 44.238 C 27.492 44.388 24.479 44.39 23.625 44.242 C 22.219 43.997 20.099 43.46 19.69 43.245 C 19.585 43.19 19.449 43.145 19.389 43.145 C 19.196 43.145 17.018 42.079 16.229 41.599 C 12.899 39.573 10.041 36.239 8.638 32.742 C 8.467 32.319 8.283 31.886 8.227 31.781 C 8.171 31.676 8.125 31.514 8.125 31.421 C 8.125 31.329 8.078 31.167 8.02 31.062 C 7.841 30.738 7.569 29.444 7.246 27.391 C 6.755 24.269 7.616 19.399 9.15 16.616 C 12.161 11.154 16.728 7.734 22.696 6.474 C 24.111 6.176 27.605 6.131 28.989 6.393 L 28.989 6.393 L 28.989 6.393 L 28.989 6.393 Z  M 35.348 18.532 C 35.773 18.956 35.736 18.576 35.722 22.378 C 35.714 24.884 35.675 25.058 35.069 25.308 C 34.643 25.484 34.153 25.264 33.519 24.609 C 32.854 23.922 32.785 23.944 31.736 25.175 C 31.233 25.765 30.794 26.273 30.76 26.303 C 30.727 26.333 30.402 26.705 30.039 27.128 C 29.676 27.552 29.149 28.146 28.87 28.449 C 28.589 28.752 27.961 29.445 27.473 29.99 C 25.341 32.371 25.226 32.362 22.595 29.604 C 20.376 27.276 20.832 27.32 18.838 29.245 C 16.669 31.34 16.226 31.558 15.571 30.855 C 14.799 30.025 15.116 29.477 18.021 26.615 C 20.915 23.765 20.742 23.775 23.218 26.307 C 24.163 27.273 24.998 28.064 25.073 28.064 C 25.243 28.064 27.423 25.681 29.152 23.605 C 29.454 23.243 29.728 22.921 29.76 22.891 C 29.793 22.86 29.958 22.669 30.125 22.466 L 30.43 22.096 L 29.654 21.282 C 28.5 20.072 28.655 19.293 30.102 19.036 C 30.431 18.978 31.444 18.761 32.356 18.554 C 34.56 18.053 34.865 18.051 35.348 18.532 Z "
                fill-rule="evenodd" fill="rgb(255,255,255)" />
        </g>
    </g>
</svg>